<svg width="264" height="241" viewBox="0 0 264 241" fill="none" xmlns="http://www.w3.org/2000/svg">
<g clip-path="url(#clip0_1_142)">
<path d="M0 0H264V229C264 235.627 258.627 241 252 241H12C5.37259 241 0 235.627 0 229V0Z" fill="#50694C"/>
<mask id="mask0_1_142" style="mask-type:luminance" maskUnits="userSpaceOnUse" x="0" y="0" width="264" height="241">
<path d="M264 0H0V241H264V0Z" fill="white"/>
</mask>
<g mask="url(#mask0_1_142)">
<mask id="mask1_1_142" style="mask-type:luminance" maskUnits="userSpaceOnUse" x="32" y="46" width="200" height="149">
<path d="M231.215 46H32V195H231.215V46Z" fill="white"/>
</mask>
<g mask="url(#mask1_1_142)">
<mask id="mask2_1_142" style="mask-type:luminance" maskUnits="userSpaceOnUse" x="32" y="46" width="200" height="149">
<path d="M231.215 46H32V195H231.215V46Z" fill="white"/>
</mask>
<g mask="url(#mask2_1_142)">
<path d="M140.973 128.107C135.823 136.629 117.038 167.73 116.616 168.445C116.121 169.27 116.25 170.113 117.349 170.113C118.046 170.113 119.86 170.113 121.07 170.113C121.748 170.113 122.462 169.746 122.866 169.05C123.196 168.5 127.759 160.619 129.445 157.724C129.83 157.064 130.508 156.661 131.223 156.661C131.791 156.661 143.062 156.661 147.149 156.661C148.45 156.661 148.799 157.834 148.799 157.834C148.799 157.834 150.32 167.565 150.466 168.518C150.613 169.453 151.108 170.131 152.171 170.131C152.757 170.131 154.058 170.131 155.14 170.131C156.019 170.131 156.643 169.49 156.423 168.335C156.221 167.309 150.393 134.558 149.11 127.355C152.556 126.439 155.488 124.679 158.09 121.839C158.31 121.6 158.805 121.289 158.842 122.022C158.86 122.352 158.952 123.415 159.062 124.459C159.19 125.687 159.978 126.879 161.426 126.879C162.177 126.879 165.898 126.879 168.28 126.879C169.472 126.879 170.333 125.926 170.333 124.368C170.333 117.788 170.333 100.524 170.333 99.0393C170.333 97.1883 169.746 95.7771 167.016 95.7771C161.646 95.7771 145.775 95.7771 144.73 95.7771C142.879 95.7771 142.109 96.6018 142.109 98.5995C142.109 99.3692 142.109 102.357 142.109 104.831C142.109 106.389 142.696 107.928 144.583 107.928C145.555 107.928 152.647 107.928 153.784 107.928C154.242 107.928 154.425 108.295 154.37 108.46C153.105 112.327 149.715 114.508 144.84 114.508C137.069 114.508 132.946 109.358 132.946 99.5158C132.946 92.1299 134.778 83.571 143.979 83.571C147.571 83.571 150.173 84.9273 151.694 87.4748C152.152 88.2628 152.885 90.1506 155.103 90.1506C156.661 90.1506 163.167 90.1506 166.851 90.1506C169.233 90.1506 169.105 87.8963 168.812 86.815C165.934 75.9468 155.763 69.0374 144.29 69.0374C127.392 69.0374 115.48 81.2618 115.48 98.6361C115.48 115.626 125.798 127.41 140.973 128.107ZM144.822 133.147C145.555 137.728 147.552 150.154 147.644 150.723C147.754 151.419 147.351 152.005 146.526 152.005C143.154 152.005 134.448 152.005 133.972 152.005C133.367 152.005 133.074 151.382 133.44 150.759C133.734 150.264 140.991 137.673 143.63 133.11C144.198 132.102 144.657 132.102 144.822 133.147Z" fill="white"/>
<path d="M32.1283 152.371C32.1283 163.605 38.3961 171.174 49.9238 171.174C55.9167 171.174 60.0403 169.726 63.3941 166.281C63.6507 166.024 64.1639 165.694 64.1822 166.519C64.2005 167.032 64.2738 168.26 64.3105 169.14C64.3471 169.708 64.7137 170.111 65.2818 170.111C65.5934 170.111 66.3631 170.111 67.0229 170.111C67.6277 170.111 68.2324 169.708 68.3791 169.011C69.2771 164.723 72.5393 149.145 72.7042 148.449C72.9608 147.386 72.5759 146.781 71.3114 146.781C67.3161 146.781 56.2283 146.781 55.3119 146.781C54.194 146.781 53.6625 147.239 53.4976 148.027C53.4059 148.467 53.1677 149.512 52.9844 150.355C52.8378 151.033 53.1127 151.564 53.8458 151.564C54.4506 151.564 63.1192 151.564 65.9599 151.564C66.8763 151.564 66.7113 152.132 66.638 152.407C64.5671 160.269 60.3152 166.464 50.9684 166.464C42.7213 166.464 37.883 161.186 37.883 152.261C37.883 141.228 44.0775 129.938 56.4299 129.938C62.6977 129.938 66.0699 132.486 67.7376 137.654C68.0309 138.589 68.2141 139.615 69.3321 139.615C70.0285 139.615 71.6046 139.615 72.7226 139.615C73.8405 139.615 73.8955 138.607 73.8405 138.112C73.254 132.486 69.9918 128.71 65.4101 126.713C74.9951 125.87 83.3339 121.471 83.3339 109.742C83.3339 102.448 79.8518 98.0675 73.4923 95.8499C77.7808 93.3025 80.5482 90.0586 80.5482 84.5055C80.5482 72.8312 69.8269 70.3753 60.4618 70.3753C60.4618 70.3753 41.8233 70.3753 38.5794 70.3753C34.1809 70.357 32 73.0694 32 76.13C32 79.1357 32 108.826 32 121.16C32 124.642 33.5028 126.859 37.2415 126.859C38.6893 126.859 42.703 126.859 47.0465 126.859C37.8646 130.653 32.1283 139.981 32.1283 152.371ZM48.2194 83.2226C48.4943 83.2226 58.5375 83.2226 58.5375 83.2226C62.4778 83.2226 64.4204 84.6888 64.4204 87.5295C64.4204 90.1502 62.4778 91.6897 59.3072 91.6897C59.3072 91.6897 48.4027 91.6897 48.1827 91.6897C47.9628 91.6897 47.8345 91.5431 47.8345 91.3048C47.8345 89.7287 47.8345 83.7541 47.8345 83.5708C47.8528 83.3509 47.9445 83.2226 48.2194 83.2226ZM48.2927 104.482C48.6592 104.482 60.5718 104.482 60.5718 104.482C64.8603 104.482 67.1512 106.186 67.1512 109.302C67.1512 112.418 64.9336 113.994 60.5718 113.994C60.5718 113.994 48.6042 113.994 48.2744 113.994C47.9445 113.994 47.8528 113.829 47.8528 113.517C47.8528 111.703 47.8528 105.197 47.8528 104.959C47.8528 104.665 47.9261 104.482 48.2927 104.482Z" fill="white"/>
<path d="M78.3676 170.112C79.5405 170.112 81.08 170.112 81.5381 170.112C82.2896 170.112 82.8577 169.525 83.0776 168.517C83.2609 167.674 85.735 156.128 86.5597 152.298C86.7247 151.528 87.2561 151.088 88.0625 151.088C88.8689 151.088 98.8021 151.088 98.8021 151.088C103.512 151.088 106.866 151.217 106.866 156.605C106.866 160.087 106.005 163.551 106.005 167.033C106.005 167.748 106.06 168.334 106.151 168.829C106.243 169.324 106.976 170.13 107.727 170.13C108.185 170.13 109.835 170.13 111.099 170.13C111.942 170.13 112.217 169.305 112.107 168.829C111.942 168.151 111.851 167.399 111.851 166.52C111.851 163.111 112.529 159.702 112.529 156.293C112.529 152.573 111.173 150.465 108.002 149.164C114.142 147.734 117.862 143.647 117.862 137.141C117.862 130.232 113.72 127.135 108.057 126.255C108.057 120.518 108.057 77.248 108.057 73.6925C108.057 71.7498 106.884 70.3936 104.557 70.3936C101.661 70.3936 95.9797 70.3936 94.1837 70.3936C92.1128 70.3936 90.7566 71.4749 90.7566 73.7658C90.7566 77.4679 90.7566 119.272 90.7566 125.998C89.2721 125.998 88.1908 125.998 87.8792 125.998C86.3215 125.998 86.0649 127.171 86.0649 127.171C86.0649 127.171 77.5795 167.454 77.3596 168.517C77.0847 169.525 77.5795 170.112 78.3676 170.112ZM87.9892 145.297C88.6856 141.98 90.7199 132.394 90.8299 131.9C90.9582 131.295 91.5263 130.91 92.0761 130.91C92.6259 130.91 103.384 130.91 103.384 130.91C109.652 130.91 112.071 133.384 112.071 137.489C112.071 145.242 105.986 146.415 99.8467 146.415C99.8467 146.415 89.4554 146.415 88.704 146.415C87.9526 146.415 87.8426 145.993 87.9892 145.297Z" fill="white"/>
<path d="M161.37 168.06C161.059 169.544 161.7 170.112 162.507 170.112C162.983 170.112 164.394 170.112 165.476 170.112C166.245 170.112 166.978 169.617 167.217 168.353C167.418 167.235 174.108 135.621 175.775 127.74C176.014 126.604 175.409 125.962 174.529 125.962C173.466 125.962 172.202 125.962 171.872 125.962C171.267 125.962 170.277 126.347 170.039 127.483C168.316 135.382 161.645 166.758 161.37 168.06Z" fill="white"/>
<path d="M219.998 125.962C218.971 125.962 217.707 125.962 217.285 125.962C216.534 125.962 215.673 126.659 215.434 127.832C213.986 135.034 208.873 160.619 208.653 161.682C208.397 162.928 207.957 163.057 207.48 161.902C204.438 154.663 193.369 128.18 193.039 127.428C192.672 126.549 191.903 125.962 191.206 125.962C189.887 125.962 187.926 125.962 187.541 125.962C186.936 125.962 185.928 126.732 185.745 127.63C185.58 128.381 178.89 159.666 177.058 168.28C176.764 169.673 177.406 170.131 178.048 170.131C178.414 170.131 179.697 170.131 180.76 170.131C181.603 170.131 182.409 169.581 182.611 168.628C183.949 161.994 189.227 135.676 189.428 134.723C189.648 133.623 190.052 133.348 190.565 134.594C191.023 135.676 202.037 161.792 204.896 168.536C205.318 169.544 206.436 170.131 207.077 170.131C207.462 170.131 209.166 170.131 210.449 170.131C211.292 170.131 212.007 169.526 212.337 168.335C212.63 167.272 219.521 134.943 221.116 127.502C221.336 126.512 220.804 125.962 219.998 125.962Z" fill="white"/>
<path d="M34.291 194.908C34.9324 194.908 35.4639 194.817 35.4639 194.817C35.4639 194.817 209.716 182.886 210.834 182.794C211.952 182.702 212.172 182.171 212.172 181.438C212.172 180.705 211.512 180.283 210.981 180.283C195.495 180.283 35.4089 180.283 34.4009 180.283C32.9714 180.283 32.33 181.016 32.33 182.281C32.33 182.684 32.33 189.703 32.33 192.746C32.3117 193.79 32.5866 194.908 34.291 194.908Z" fill="white"/>
<path d="M231.014 74.7188C230.977 74.6455 230.94 74.5906 230.904 74.5356L230.867 74.4989C230.867 74.4989 230.849 74.4806 230.849 74.4623C230.83 74.4256 230.812 74.389 230.794 74.3706C230.134 73.5276 228.759 73.106 226.743 73.106C225.754 73.106 224.581 73.216 223.298 73.4176C223.243 73.4359 223.17 73.4359 223.096 73.4543L222.968 73.4726C222.455 73.5642 221.978 73.6559 221.539 73.7475C221.392 73.7842 221.245 73.8208 221.099 73.8391L220.952 73.8758C220.531 73.9674 220.109 74.0774 219.687 74.1874C219.431 74.2607 219.156 74.334 218.881 74.4073C218.35 74.5539 217.855 74.7005 217.378 74.8288C217.213 74.8838 217.048 74.9205 216.883 74.9754L216.7 75.0304C216.04 75.232 215.436 75.4336 214.867 75.6169C214.721 75.6719 214.574 75.7268 214.428 75.7635L214.263 75.8185C213.658 76.0201 213.108 76.2217 212.577 76.4233L212.467 76.4599C212.375 76.4966 212.302 76.4599 212.265 76.3683C212.247 76.3133 212.265 76.24 212.32 76.185C212.338 76.1667 212.393 76.13 212.467 76.0934C216.535 73.8941 220.164 72.7212 222.107 72.098C222.656 71.9148 223.06 71.7865 223.28 71.6948C223.316 71.6765 223.353 71.6399 223.371 71.6032C223.39 71.5666 223.39 71.5116 223.371 71.4749C218.02 59.3056 208.655 50.032 204.879 46.6231C204.421 46.2199 203.908 46 203.358 46C202.698 46 202.02 46.3116 201.397 46.8797C198.575 49.4639 193.113 54.8887 188.33 62.1647C182.392 71.1817 179.386 80.0704 179.386 88.6109C179.386 90.0038 179.478 91.4333 179.643 92.8629C179.643 92.9178 179.68 92.9728 179.753 93.0095C179.808 93.0278 179.881 93.0278 179.918 92.9911C181.769 91.7999 184.17 90.3703 186.9 88.8675L186.882 88.8492C186.864 88.8309 186.864 88.8309 186.845 88.8125C186.827 88.7942 186.827 88.7942 186.809 88.7759C186.79 88.7575 186.772 88.7392 186.754 88.7209C186.735 88.7026 186.717 88.6842 186.717 88.6659C186.699 88.6476 186.68 88.6109 186.662 88.5926C186.644 88.5743 186.625 88.5376 186.607 88.5193C186.589 88.4826 186.57 88.4643 186.552 88.4277C186.534 88.391 186.516 88.3727 186.497 88.336C186.479 88.2994 186.461 88.2627 186.424 88.2444C186.406 88.2077 186.387 88.1711 186.351 88.1527C186.332 88.1161 186.296 88.0794 186.277 88.0428C186.259 88.0061 186.241 87.9695 186.204 87.9328C186.186 87.8962 186.149 87.8412 186.131 87.8045C186.112 87.7679 186.094 87.7312 186.057 87.6762C186.039 87.6396 186.002 87.5846 185.984 87.5296C185.966 87.493 185.947 87.438 185.911 87.4013C185.892 87.3463 185.856 87.2914 185.837 87.2547C185.819 87.1997 185.801 87.1631 185.782 87.1081C185.764 87.0531 185.746 86.9981 185.709 86.9431C185.691 86.8882 185.672 86.8515 185.654 86.7965C185.636 86.7415 185.617 86.6682 185.599 86.6133C185.581 86.5583 185.563 86.5216 185.563 86.4666C185.544 86.3933 185.526 86.3383 185.508 86.265C185.489 86.2101 185.489 86.1734 185.471 86.1184C185.453 86.0451 185.453 85.9718 185.434 85.8985C185.434 85.8618 185.416 85.8069 185.416 85.7702C185.398 85.6786 185.398 85.5869 185.398 85.5136C185.398 85.477 185.398 85.4403 185.398 85.4037C185.398 85.2754 185.398 85.1471 185.398 85.0188C185.453 83.9741 185.892 83.0394 186.332 82.3797C186.717 81.7932 187.102 81.4083 187.212 81.2983C187.23 81.28 187.23 81.28 187.249 81.2617C187.322 81.2067 187.395 81.1701 187.487 81.1701C187.597 81.1701 187.688 81.225 187.743 81.28C187.743 81.28 187.78 81.3167 187.835 81.39C188.165 81.7932 189.338 83.351 189.265 85.2021C189.265 85.2937 189.246 85.3853 189.246 85.477C189.246 85.5136 189.246 85.5319 189.228 85.5686C189.228 85.6236 189.21 85.6969 189.21 85.7519C189.21 85.7885 189.191 85.8252 189.191 85.8435C189.173 85.8985 189.173 85.9535 189.155 86.0085C189.155 86.0451 189.136 86.0634 189.136 86.1001C189.118 86.1551 189.1 86.2101 189.081 86.265C189.081 86.2834 189.063 86.32 189.063 86.3383C189.045 86.4117 189.008 86.5033 188.99 86.5766C188.953 86.6499 188.935 86.7232 188.898 86.8149C188.88 86.8332 188.88 86.8698 188.861 86.8882C188.843 86.9431 188.825 86.9981 188.788 87.0348C188.77 87.0531 188.77 87.0898 188.751 87.1081C188.733 87.1631 188.715 87.1997 188.678 87.2364C188.66 87.2547 188.66 87.2914 188.641 87.3097C188.623 87.3647 188.586 87.4013 188.568 87.4563C188.55 87.4746 188.55 87.493 188.531 87.5113C188.495 87.5846 188.458 87.6396 188.422 87.6946C188.385 87.7495 188.348 87.8229 188.312 87.8778C188.293 87.8962 188.293 87.9145 188.275 87.9328C188.257 87.9695 188.22 88.0061 188.202 88.0428C188.183 88.0611 188.165 88.0794 188.165 88.0978C188.147 88.1344 188.11 88.1711 188.092 88.2077C188.073 88.2261 188.073 88.2444 188.055 88.2627C188.055 88.281 188.037 88.281 188.037 88.2994C189.558 87.4746 191.134 86.6499 192.71 85.8435L192.692 85.8252C192.673 85.8069 192.673 85.7885 192.655 85.7702C192.637 85.7519 192.618 85.7335 192.618 85.7152C192.6 85.6969 192.6 85.6786 192.582 85.6602C192.563 85.6419 192.545 85.6053 192.527 85.5869C192.508 85.5686 192.49 85.5503 192.472 85.5136C192.453 85.477 192.435 85.4403 192.417 85.422C192.399 85.4037 192.38 85.367 192.362 85.3487C192.325 85.2937 192.289 85.2204 192.252 85.1471C192.234 85.1287 192.234 85.1104 192.215 85.0738C192.179 85.0188 192.16 84.9638 192.124 84.9088C192.105 84.8722 192.087 84.8538 192.069 84.8172C192.05 84.7622 192.014 84.7255 191.995 84.6706C191.977 84.6339 191.959 84.5973 191.94 84.5606C191.922 84.5056 191.904 84.4506 191.867 84.414C191.849 84.3773 191.83 84.3407 191.812 84.2857C191.794 84.2307 191.775 84.1757 191.757 84.1207C191.739 84.0841 191.72 84.0291 191.72 83.9925C191.702 83.9375 191.684 83.8825 191.665 83.8275C191.647 83.7909 191.647 83.7359 191.629 83.6992C191.61 83.6442 191.592 83.5709 191.574 83.5159C191.555 83.461 191.555 83.4243 191.537 83.3693C191.519 83.3143 191.519 83.241 191.5 83.1861C191.5 83.1311 191.482 83.0944 191.482 83.0394C191.464 82.9661 191.464 82.9111 191.464 82.8378C191.464 82.7829 191.445 82.7462 191.445 82.6912C191.445 82.6179 191.445 82.5446 191.445 82.453C191.445 82.4163 191.445 82.3797 191.445 82.3247C191.445 82.1964 191.445 82.0864 191.464 81.9581C191.647 79.9971 193.223 78.5492 193.461 78.3293C193.48 78.311 193.498 78.311 193.498 78.2927C193.571 78.2377 193.663 78.201 193.755 78.2194C193.846 78.2194 193.938 78.2743 193.993 78.3477C194.048 78.421 195.148 79.7772 195.313 81.5183C195.331 81.6649 195.331 81.7932 195.331 81.9398C195.331 82.0681 195.331 82.1964 195.313 82.3247C195.313 82.398 195.294 82.4896 195.276 82.5629C195.276 82.5813 195.276 82.6179 195.258 82.6362C195.258 82.6912 195.239 82.7462 195.221 82.7829C195.221 82.8195 195.203 82.8378 195.203 82.8745C195.184 82.9295 195.184 82.9661 195.166 83.0211C195.166 83.0578 195.148 83.0761 195.148 83.1127C195.129 83.1677 195.129 83.2044 195.111 83.2594C195.111 83.2777 195.093 83.3143 195.093 83.3327C195.074 83.3877 195.056 83.4243 195.038 83.4793C195.038 83.4976 195.019 83.5159 195.019 83.5343C195.001 83.6076 194.964 83.6626 194.928 83.7359C194.928 83.7542 194.909 83.7542 194.909 83.7725C194.891 83.8275 194.854 83.8825 194.836 83.9375C194.818 83.9558 194.818 83.9741 194.799 84.0108C194.781 84.0474 194.763 84.1024 194.726 84.1391C194.708 84.1574 194.708 84.1941 194.689 84.2124C194.671 84.249 194.653 84.2857 194.616 84.3223C194.598 84.3407 194.598 84.3773 194.579 84.3957C194.561 84.4323 194.524 84.469 194.506 84.5056C194.488 84.5239 194.488 84.5423 194.469 84.5606C194.451 84.5973 194.414 84.6522 194.396 84.6889C194.378 84.7072 194.378 84.7255 194.36 84.7255C194.323 84.7805 194.286 84.8355 194.25 84.8905C194.231 84.9088 194.231 84.9271 194.213 84.9455C194.195 84.9821 194.158 85.0188 194.14 85.0554C194.121 85.0738 194.103 85.0921 194.085 85.1104C194.066 85.1287 194.048 85.1471 194.048 85.1654C194.469 84.9455 194.909 84.7439 195.349 84.5239L195.404 84.4873C195.422 84.469 195.441 84.469 195.477 84.4506C195.587 84.3957 195.697 84.4323 195.734 84.5239C195.752 84.5789 195.734 84.6522 195.661 84.7072C195.624 84.7439 195.587 84.7622 195.551 84.7805C195.532 84.7805 195.514 84.7989 195.496 84.8172C195.129 85.0188 194.781 85.2204 194.451 85.422C194.561 85.4037 194.671 85.3853 194.781 85.3853C194.799 85.3853 194.799 85.3853 194.818 85.3853C194.964 85.367 195.093 85.367 195.239 85.3487C195.258 85.3487 195.294 85.3487 195.313 85.3487C195.422 85.3487 195.532 85.3487 195.642 85.3487C195.679 85.3487 195.716 85.3487 195.752 85.3487C195.844 85.3487 195.936 85.367 196.027 85.367C196.064 85.367 196.119 85.3853 196.156 85.3853C196.247 85.4037 196.32 85.4037 196.412 85.422C196.449 85.422 196.504 85.4403 196.54 85.4403C196.632 85.4586 196.705 85.477 196.797 85.4953C196.834 85.5136 196.87 85.5136 196.907 85.5319C197.017 85.5686 197.145 85.6053 197.255 85.6419C198.703 86.2101 199.601 87.5296 199.986 88.2077C200.059 88.336 200.114 88.4277 200.151 88.501C200.188 88.5743 200.206 88.6109 200.206 88.6293C200.242 88.7209 200.242 88.8125 200.206 88.9042C200.169 88.9958 200.096 89.0691 200.023 89.1058C199.986 89.1241 198.905 89.5639 197.603 89.5639C196.962 89.5639 196.375 89.454 195.844 89.2524C195.734 89.2157 195.642 89.1607 195.532 89.1058C195.532 89.1058 195.514 89.1058 195.514 89.0874C195.422 89.0325 195.331 88.9958 195.239 88.9408C195.221 88.9408 195.221 88.9225 195.203 88.9225C195.111 88.8675 195.038 88.8125 194.946 88.7575C194.928 88.7575 194.928 88.7392 194.909 88.7392C194.836 88.6842 194.744 88.6293 194.671 88.5559C194.653 88.5376 194.653 88.5376 194.634 88.5193C194.561 88.4643 194.488 88.391 194.414 88.336L194.396 88.3177C194.323 88.2444 194.25 88.1894 194.195 88.1161C194.195 88.1161 194.195 88.1161 194.176 88.0978C194.03 87.9511 193.901 87.8045 193.791 87.6579C193.791 87.6579 193.791 87.6396 193.773 87.6396C193.718 87.5663 193.663 87.5113 193.608 87.438L193.59 87.4197C193.535 87.3463 193.498 87.2914 193.461 87.2364L193.443 87.2181C193.406 87.1631 193.37 87.0898 193.333 87.0348L193.315 87.0165C193.278 86.9615 193.242 86.9065 193.205 86.8515C193.205 86.8515 193.205 86.8332 193.187 86.8332C193.15 86.7782 193.132 86.7232 193.095 86.6866C193.077 86.6316 193.04 86.5949 193.022 86.5583C193.003 86.5216 192.985 86.485 192.967 86.4483V86.43C192.948 86.4117 192.948 86.375 192.93 86.3567C190.822 87.5846 189.265 88.5193 188.312 89.1424C188.33 89.1424 188.33 89.1424 188.348 89.1424C188.367 89.1424 188.385 89.1424 188.403 89.1241C188.477 89.1058 188.531 89.0874 188.605 89.0874C188.623 89.0874 188.623 89.0874 188.641 89.0874C188.715 89.0691 188.806 89.0508 188.898 89.0508C188.916 89.0508 188.935 89.0508 188.953 89.0325C189.045 89.0141 189.118 89.0141 189.21 88.9958H189.228C189.32 88.9775 189.411 88.9775 189.521 88.9775C189.539 88.9775 189.576 88.9775 189.594 88.9775C189.704 88.9775 189.796 88.9775 189.906 88.9775C190.547 88.9775 191.152 89.0874 191.684 89.3074C191.922 89.399 192.16 89.5273 192.362 89.6556C193.736 90.517 194.469 91.9831 194.598 92.2581C194.616 92.2764 194.616 92.2947 194.616 92.2947C194.653 92.3863 194.653 92.478 194.616 92.5696C194.579 92.6613 194.506 92.7346 194.414 92.7712H194.396C194.231 92.8262 193.223 93.2111 192.014 93.2111C191.372 93.2111 190.767 93.1011 190.236 92.8812C190.181 92.8629 190.108 92.8262 190.053 92.8079C188.275 92.0015 187.395 90.1138 187.304 89.9122V89.8938C187.304 89.8938 187.304 89.8755 187.285 89.8755C184.353 91.9831 181.952 93.9808 180.156 95.7952C180.138 95.8136 180.138 95.8135 180.138 95.8319L180.119 95.8502C178.36 97.6463 177.26 99.2224 176.821 100.524V100.542C176.637 101.073 176.582 101.568 176.656 102.026V102.063C176.692 102.283 176.766 102.503 176.857 102.686C177.407 103.749 178.836 104.299 181.127 104.299C181.549 104.299 182.025 104.281 182.502 104.244H182.575L182.594 104.299C187.762 117.238 197.713 127.117 201.745 130.745C202.222 131.185 202.772 131.405 203.303 131.405C203.835 131.405 204.348 131.185 204.806 130.764C210.066 126.035 227.183 109.009 227.183 88.7026C227.183 86.7782 227.018 84.7805 226.688 82.7645V82.7095L226.725 82.6729C228.961 80.5653 230.39 78.7325 230.959 77.2297C231.032 77.0281 231.087 76.8448 231.142 76.6799C231.307 76.0018 231.289 75.397 231.05 74.9021C231.032 74.7555 231.014 74.7372 231.014 74.7188ZM205.722 84.7622C205.704 84.8538 205.649 84.9455 205.576 85.0005C205.576 85.0005 205.557 85.0005 205.539 85.0188C205.319 85.1654 203.908 86.0451 202.258 86.0451C202.002 86.0451 201.727 86.0268 201.489 85.9718C201.379 85.9535 201.287 85.9351 201.195 85.8985C201.177 85.8985 201.177 85.8985 201.159 85.8802C201.067 85.8618 200.976 85.8252 200.866 85.7885H200.847C199.546 85.3303 198.611 84.3407 198.227 83.8825L198.208 83.8642C198.19 83.8458 198.172 83.8092 198.153 83.7909C198.08 83.6992 198.043 83.6442 198.025 83.6259C197.988 83.5893 197.933 83.461 197.823 83.2044C197.823 83.2044 197.823 83.2044 197.823 83.1861C197.787 83.1127 197.182 81.7382 197.31 80.1987C197.347 79.8138 197.42 79.4106 197.567 79.0074C198.135 77.4679 199.528 76.5149 200.151 76.1484C200.169 76.13 200.206 76.1117 200.224 76.1117C200.261 76.0934 200.316 76.0567 200.334 76.0384C200.407 76.0018 200.444 75.9834 200.462 75.9834C200.499 75.9651 200.554 75.9468 200.591 75.9468C200.646 75.9468 200.682 75.9468 200.737 75.9651C200.829 76.0018 200.902 76.0567 200.939 76.1484C200.939 76.1484 200.939 76.1484 200.939 76.1667C201.012 76.3133 201.452 77.3946 201.47 78.6775C201.47 79.209 201.397 79.7772 201.195 80.327C200.884 81.1884 200.297 81.8665 199.748 82.343C200.279 82.1781 200.811 82.0864 201.305 82.0681C201.599 82.0681 201.892 82.0864 202.185 82.1414C202.57 82.2147 202.937 82.343 203.266 82.4896C203.376 82.5446 203.486 82.5996 203.596 82.6546C203.798 82.7645 204 82.8928 204.183 83.0211C205.081 83.6809 205.631 84.4323 205.667 84.469C205.704 84.5239 205.722 84.5973 205.741 84.6706C205.722 84.7255 205.722 84.7439 205.722 84.7622ZM209.388 77.8345C209.351 77.9261 208.6 80.1254 206.73 81.0784C206.07 81.4083 205.301 81.5733 204.439 81.5733C203.376 81.5733 202.57 81.3167 202.533 81.3167C202.442 81.28 202.368 81.225 202.332 81.1334C202.295 81.0418 202.277 80.9501 202.313 80.8585C202.313 80.8402 202.332 80.8035 202.368 80.7302C202.552 80.2354 203.34 78.4576 204.989 77.6146C205.649 77.2847 206.419 77.1197 207.28 77.1197C208.27 77.1197 209.039 77.3396 209.168 77.3763H209.186C209.278 77.413 209.351 77.4679 209.388 77.5596C209.424 77.6329 209.424 77.7428 209.388 77.8345Z" fill="#E6D64F"/>
</g>
</g>
</g>
</g>
<defs>
<clipPath id="clip0_1_142">
<path d="M0 0H264V229C264 235.627 258.627 241 252 241H12C5.37259 241 0 235.627 0 229V0Z" fill="white"/>
</clipPath>
</defs>
</svg>
