<svg width="264" height="264" fill="none" xmlns="http://www.w3.org/2000/svg"><circle cx="132" cy="132" r="132" fill="#50694C"/><mask id="mask0_1_141" style="mask-type:luminance" maskUnits="userSpaceOnUse" x="32" y="50" width="200" height="149"><path d="M231.215 50H32V199H231.215V50Z" fill="white"/></mask><g mask="url(#mask0_1_141)"><mask id="mask1_1_141" style="mask-type:luminance" maskUnits="userSpaceOnUse" x="32" y="50" width="200" height="149"><path d="M231.215 50H32V199H231.215V50Z" fill="white"/></mask><g mask="url(#mask1_1_141)"><path d="M140.973 132.107C135.823 140.629 117.038 171.73 116.616 172.445C116.121 173.27 116.25 174.113 117.349 174.113C118.046 174.113 119.86 174.113 121.07 174.113C121.748 174.113 122.462 173.746 122.866 173.05C123.196 172.5 127.759 164.619 129.445 161.724C129.83 161.064 130.508 160.661 131.223 160.661C131.791 160.661 143.062 160.661 147.149 160.661C148.45 160.661 148.799 161.834 148.799 161.834C148.799 161.834 150.32 171.565 150.466 172.518C150.613 173.453 151.108 174.131 152.171 174.131C152.757 174.131 154.058 174.131 155.14 174.131C156.019 174.131 156.643 173.49 156.423 172.335C156.221 171.309 150.393 138.558 149.11 131.355C152.556 130.439 155.488 128.679 158.09 125.839C158.31 125.6 158.805 125.289 158.842 126.022C158.86 126.352 158.952 127.415 159.062 128.459C159.19 129.687 159.978 130.879 161.426 130.879C162.177 130.879 165.898 130.879 168.28 130.879C169.472 130.879 170.333 129.926 170.333 128.368C170.333 121.788 170.333 104.524 170.333 103.039C170.333 101.188 169.746 99.7771 167.016 99.7771C161.646 99.7771 145.775 99.7771 144.73 99.7771C142.879 99.7771 142.109 100.602 142.109 102.6C142.109 103.369 142.109 106.357 142.109 108.831C142.109 110.389 142.696 111.928 144.583 111.928C145.555 111.928 152.647 111.928 153.784 111.928C154.242 111.928 154.425 112.295 154.37 112.46C153.105 116.327 149.715 118.508 144.84 118.508C137.069 118.508 132.946 113.358 132.946 103.516C132.946 96.1299 134.778 87.571 143.979 87.571C147.571 87.571 150.173 88.9273 151.694 91.4748C152.152 92.2628 152.885 94.1506 155.103 94.1506C156.661 94.1506 163.167 94.1506 166.851 94.1506C169.233 94.1506 169.105 91.8963 168.812 90.815C165.934 79.9468 155.763 73.0374 144.29 73.0374C127.392 73.0374 115.48 85.2618 115.48 102.636C115.48 119.626 125.798 131.41 140.973 132.107ZM144.822 137.147C145.555 141.728 147.552 154.154 147.644 154.723C147.754 155.419 147.351 156.005 146.526 156.005C143.154 156.005 134.448 156.005 133.972 156.005C133.367 156.005 133.074 155.382 133.44 154.759C133.734 154.264 140.991 141.673 143.63 137.11C144.198 136.102 144.657 136.102 144.822 137.147Z" fill="white"/><path d="M32.1283 156.371C32.1283 167.605 38.3961 175.174 49.9238 175.174C55.9167 175.174 60.0403 173.726 63.3941 170.281C63.6507 170.024 64.1639 169.694 64.1822 170.519C64.2005 171.032 64.2738 172.26 64.3105 173.14C64.3471 173.708 64.7137 174.111 65.2818 174.111C65.5934 174.111 66.3631 174.111 67.0229 174.111C67.6277 174.111 68.2324 173.708 68.3791 173.011C69.2771 168.723 72.5393 153.145 72.7042 152.449C72.9608 151.386 72.5759 150.781 71.3114 150.781C67.3161 150.781 56.2283 150.781 55.3119 150.781C54.194 150.781 53.6625 151.239 53.4976 152.027C53.4059 152.467 53.1677 153.512 52.9844 154.355C52.8378 155.033 53.1127 155.564 53.8458 155.564C54.4506 155.564 63.1192 155.564 65.9599 155.564C66.8763 155.564 66.7113 156.132 66.638 156.407C64.5671 164.269 60.3152 170.464 50.9684 170.464C42.7213 170.464 37.883 165.186 37.883 156.261C37.883 145.228 44.0775 133.938 56.4299 133.938C62.6977 133.938 66.0699 136.486 67.7376 141.654C68.0309 142.589 68.2141 143.615 69.3321 143.615C70.0285 143.615 71.6046 143.615 72.7226 143.615C73.8405 143.615 73.8955 142.607 73.8405 142.112C73.254 136.486 69.9918 132.71 65.4101 130.713C74.9951 129.87 83.3339 125.471 83.3339 113.742C83.3339 106.448 79.8518 102.068 73.4923 99.8499C77.7808 97.3025 80.5482 94.0586 80.5482 88.5055C80.5482 76.8312 69.8269 74.3753 60.4618 74.3753C60.4618 74.3753 41.8233 74.3753 38.5794 74.3753C34.1809 74.357 32 77.0694 32 80.13C32 83.1357 32 112.826 32 125.16C32 128.642 33.5028 130.859 37.2415 130.859C38.6893 130.859 42.703 130.859 47.0465 130.859C37.8646 134.653 32.1283 143.981 32.1283 156.371ZM48.2194 87.2226C48.4943 87.2226 58.5375 87.2226 58.5375 87.2226C62.4778 87.2226 64.4204 88.6888 64.4204 91.5295C64.4204 94.1502 62.4778 95.6897 59.3072 95.6897C59.3072 95.6897 48.4027 95.6897 48.1827 95.6897C47.9628 95.6897 47.8345 95.5431 47.8345 95.3048C47.8345 93.7287 47.8345 87.7541 47.8345 87.5708C47.8528 87.3509 47.9445 87.2226 48.2194 87.2226ZM48.2927 108.482C48.6592 108.482 60.5718 108.482 60.5718 108.482C64.8603 108.482 67.1512 110.186 67.1512 113.302C67.1512 116.418 64.9336 117.994 60.5718 117.994C60.5718 117.994 48.6042 117.994 48.2744 117.994C47.9445 117.994 47.8528 117.829 47.8528 117.517C47.8528 115.703 47.8528 109.197 47.8528 108.959C47.8528 108.665 47.9261 108.482 48.2927 108.482Z" fill="white"/><path d="M78.3676 174.112C79.5405 174.112 81.08 174.112 81.5381 174.112C82.2896 174.112 82.8577 173.525 83.0776 172.517C83.2609 171.674 85.735 160.128 86.5597 156.298C86.7247 155.528 87.2561 155.088 88.0625 155.088C88.8689 155.088 98.8021 155.088 98.8021 155.088C103.512 155.088 106.866 155.217 106.866 160.605C106.866 164.087 106.005 167.551 106.005 171.033C106.005 171.748 106.06 172.334 106.151 172.829C106.243 173.324 106.976 174.13 107.727 174.13C108.185 174.13 109.835 174.13 111.099 174.13C111.942 174.13 112.217 173.305 112.107 172.829C111.942 172.151 111.851 171.399 111.851 170.52C111.851 167.111 112.529 163.702 112.529 160.293C112.529 156.573 111.173 154.465 108.002 153.164C114.142 151.734 117.862 147.647 117.862 141.141C117.862 134.232 113.72 131.135 108.057 130.255C108.057 124.518 108.057 81.248 108.057 77.6925C108.057 75.7498 106.884 74.3936 104.557 74.3936C101.661 74.3936 95.9797 74.3936 94.1837 74.3936C92.1128 74.3936 90.7566 75.4749 90.7566 77.7658C90.7566 81.4679 90.7566 123.272 90.7566 129.998C89.2721 129.998 88.1908 129.998 87.8792 129.998C86.3215 129.998 86.0649 131.171 86.0649 131.171C86.0649 131.171 77.5795 171.454 77.3596 172.517C77.0847 173.525 77.5795 174.112 78.3676 174.112ZM87.9892 149.297C88.6856 145.98 90.7199 136.394 90.8299 135.9C90.9582 135.295 91.5263 134.91 92.0761 134.91C92.6259 134.91 103.384 134.91 103.384 134.91C109.652 134.91 112.071 137.384 112.071 141.489C112.071 149.242 105.986 150.415 99.8467 150.415C99.8467 150.415 89.4554 150.415 88.704 150.415C87.9526 150.415 87.8426 149.993 87.9892 149.297Z" fill="white"/><path d="M161.37 172.06C161.059 173.544 161.7 174.112 162.507 174.112C162.983 174.112 164.394 174.112 165.476 174.112C166.245 174.112 166.978 173.617 167.217 172.353C167.418 171.235 174.108 139.621 175.775 131.74C176.014 130.604 175.409 129.962 174.529 129.962C173.466 129.962 172.202 129.962 171.872 129.962C171.267 129.962 170.277 130.347 170.039 131.483C168.316 139.382 161.645 170.758 161.37 172.06Z" fill="white"/><path d="M219.998 129.962C218.971 129.962 217.707 129.962 217.285 129.962C216.534 129.962 215.673 130.659 215.434 131.832C213.986 139.034 208.873 164.619 208.653 165.682C208.397 166.928 207.957 167.057 207.48 165.902C204.438 158.663 193.369 132.18 193.039 131.428C192.672 130.549 191.903 129.962 191.206 129.962C189.887 129.962 187.926 129.962 187.541 129.962C186.936 129.962 185.928 130.732 185.745 131.63C185.58 132.381 178.89 163.666 177.058 172.28C176.764 173.673 177.406 174.131 178.048 174.131C178.414 174.131 179.697 174.131 180.76 174.131C181.603 174.131 182.409 173.581 182.611 172.628C183.949 165.994 189.227 139.676 189.428 138.723C189.648 137.623 190.052 137.348 190.565 138.594C191.023 139.676 202.037 165.792 204.896 172.536C205.318 173.544 206.436 174.131 207.077 174.131C207.462 174.131 209.166 174.131 210.449 174.131C211.292 174.131 212.007 173.526 212.337 172.335C212.63 171.272 219.521 138.943 221.116 131.502C221.336 130.512 220.804 129.962 219.998 129.962Z" fill="white"/><path d="M34.291 198.908C34.9324 198.908 35.4639 198.817 35.4639 198.817C35.4639 198.817 209.716 186.886 210.834 186.794C211.952 186.702 212.172 186.171 212.172 185.438C212.172 184.705 211.512 184.283 210.981 184.283C195.495 184.283 35.4089 184.283 34.4009 184.283C32.9714 184.283 32.33 185.016 32.33 186.281C32.33 186.684 32.33 193.703 32.33 196.746C32.3117 197.79 32.5866 198.908 34.291 198.908Z" fill="white"/><path d="M231.014 78.7188C230.977 78.6455 230.94 78.5906 230.904 78.5356L230.867 78.4989C230.867 78.4989 230.849 78.4806 230.849 78.4623C230.83 78.4256 230.812 78.389 230.794 78.3706C230.134 77.5276 228.759 77.106 226.743 77.106C225.754 77.106 224.581 77.216 223.298 77.4176C223.243 77.4359 223.17 77.4359 223.096 77.4543L222.968 77.4726C222.455 77.5642 221.978 77.6559 221.539 77.7475C221.392 77.7842 221.245 77.8208 221.099 77.8391L220.952 77.8758C220.531 77.9674 220.109 78.0774 219.687 78.1874C219.431 78.2607 219.156 78.334 218.881 78.4073C218.35 78.5539 217.855 78.7005 217.378 78.8288C217.213 78.8838 217.048 78.9205 216.883 78.9754L216.7 79.0304C216.04 79.232 215.436 79.4336 214.867 79.6169C214.721 79.6719 214.574 79.7268 214.428 79.7635L214.263 79.8185C213.658 80.0201 213.108 80.2217 212.577 80.4233L212.467 80.4599C212.375 80.4966 212.302 80.4599 212.265 80.3683C212.247 80.3133 212.265 80.24 212.32 80.185C212.338 80.1667 212.393 80.13 212.467 80.0934C216.535 77.8941 220.164 76.7212 222.107 76.098C222.656 75.9148 223.06 75.7865 223.28 75.6948C223.316 75.6765 223.353 75.6399 223.371 75.6032C223.39 75.5666 223.39 75.5116 223.371 75.4749C218.02 63.3056 208.655 54.032 204.879 50.6231C204.421 50.2199 203.908 50 203.358 50C202.698 50 202.02 50.3116 201.397 50.8797C198.575 53.4639 193.113 58.8887 188.33 66.1647C182.392 75.1817 179.386 84.0704 179.386 92.6109C179.386 94.0038 179.478 95.4333 179.643 96.8629C179.643 96.9178 179.68 96.9728 179.753 97.0095C179.808 97.0278 179.881 97.0278 179.918 96.9911C181.769 95.7999 184.17 94.3703 186.9 92.8675L186.882 92.8492C186.864 92.8309 186.864 92.8309 186.845 92.8125C186.827 92.7942 186.827 92.7942 186.809 92.7759C186.79 92.7575 186.772 92.7392 186.754 92.7209C186.735 92.7026 186.717 92.6842 186.717 92.6659C186.699 92.6476 186.68 92.6109 186.662 92.5926C186.644 92.5743 186.625 92.5376 186.607 92.5193C186.589 92.4826 186.57 92.4643 186.552 92.4277C186.534 92.391 186.516 92.3727 186.497 92.336C186.479 92.2994 186.461 92.2627 186.424 92.2444C186.406 92.2077 186.387 92.1711 186.351 92.1527C186.332 92.1161 186.296 92.0794 186.277 92.0428C186.259 92.0061 186.241 91.9695 186.204 91.9328C186.186 91.8962 186.149 91.8412 186.131 91.8045C186.112 91.7679 186.094 91.7312 186.057 91.6762C186.039 91.6396 186.002 91.5846 185.984 91.5296C185.966 91.493 185.947 91.438 185.911 91.4013C185.892 91.3463 185.856 91.2914 185.837 91.2547C185.819 91.1997 185.801 91.1631 185.782 91.1081C185.764 91.0531 185.746 90.9981 185.709 90.9431C185.691 90.8882 185.672 90.8515 185.654 90.7965C185.636 90.7415 185.617 90.6682 185.599 90.6133C185.581 90.5583 185.563 90.5216 185.563 90.4666C185.544 90.3933 185.526 90.3383 185.508 90.265C185.489 90.2101 185.489 90.1734 185.471 90.1184C185.453 90.0451 185.453 89.9718 185.434 89.8985C185.434 89.8618 185.416 89.8069 185.416 89.7702C185.398 89.6786 185.398 89.5869 185.398 89.5136C185.398 89.477 185.398 89.4403 185.398 89.4037C185.398 89.2754 185.398 89.1471 185.398 89.0188C185.453 87.9741 185.892 87.0394 186.332 86.3797C186.717 85.7932 187.102 85.4083 187.212 85.2983C187.23 85.28 187.23 85.28 187.249 85.2617C187.322 85.2067 187.395 85.1701 187.487 85.1701C187.597 85.1701 187.688 85.225 187.743 85.28C187.743 85.28 187.78 85.3167 187.835 85.39C188.165 85.7932 189.338 87.351 189.265 89.2021C189.265 89.2937 189.246 89.3853 189.246 89.477C189.246 89.5136 189.246 89.5319 189.228 89.5686C189.228 89.6236 189.21 89.6969 189.21 89.7519C189.21 89.7885 189.191 89.8252 189.191 89.8435C189.173 89.8985 189.173 89.9535 189.155 90.0085C189.155 90.0451 189.136 90.0634 189.136 90.1001C189.118 90.1551 189.1 90.2101 189.081 90.265C189.081 90.2834 189.063 90.32 189.063 90.3383C189.045 90.4117 189.008 90.5033 188.99 90.5766C188.953 90.6499 188.935 90.7232 188.898 90.8149C188.88 90.8332 188.88 90.8698 188.861 90.8882C188.843 90.9431 188.825 90.9981 188.788 91.0348C188.77 91.0531 188.77 91.0898 188.751 91.1081C188.733 91.1631 188.715 91.1997 188.678 91.2364C188.66 91.2547 188.66 91.2914 188.641 91.3097C188.623 91.3647 188.586 91.4013 188.568 91.4563C188.55 91.4746 188.55 91.493 188.531 91.5113C188.495 91.5846 188.458 91.6396 188.422 91.6946C188.385 91.7495 188.348 91.8229 188.312 91.8778C188.293 91.8962 188.293 91.9145 188.275 91.9328C188.257 91.9695 188.22 92.0061 188.202 92.0428C188.183 92.0611 188.165 92.0794 188.165 92.0978C188.147 92.1344 188.11 92.1711 188.092 92.2077C188.073 92.2261 188.073 92.2444 188.055 92.2627C188.055 92.281 188.037 92.281 188.037 92.2994C189.558 91.4746 191.134 90.6499 192.71 89.8435L192.692 89.8252C192.673 89.8069 192.673 89.7885 192.655 89.7702C192.637 89.7519 192.618 89.7335 192.618 89.7152C192.6 89.6969 192.6 89.6786 192.582 89.6602C192.563 89.6419 192.545 89.6053 192.527 89.5869C192.508 89.5686 192.49 89.5503 192.472 89.5136C192.453 89.477 192.435 89.4403 192.417 89.422C192.399 89.4037 192.38 89.367 192.362 89.3487C192.325 89.2937 192.289 89.2204 192.252 89.1471C192.234 89.1287 192.234 89.1104 192.215 89.0738C192.179 89.0188 192.16 88.9638 192.124 88.9088C192.105 88.8722 192.087 88.8538 192.069 88.8172C192.05 88.7622 192.014 88.7255 191.995 88.6706C191.977 88.6339 191.959 88.5973 191.94 88.5606C191.922 88.5056 191.904 88.4506 191.867 88.414C191.849 88.3773 191.83 88.3407 191.812 88.2857C191.794 88.2307 191.775 88.1757 191.757 88.1207C191.739 88.0841 191.72 88.0291 191.72 87.9925C191.702 87.9375 191.684 87.8825 191.665 87.8275C191.647 87.7909 191.647 87.7359 191.629 87.6992C191.61 87.6442 191.592 87.5709 191.574 87.5159C191.555 87.461 191.555 87.4243 191.537 87.3693C191.519 87.3143 191.519 87.241 191.5 87.1861C191.5 87.1311 191.482 87.0944 191.482 87.0394C191.464 86.9661 191.464 86.9111 191.464 86.8378C191.464 86.7829 191.445 86.7462 191.445 86.6912C191.445 86.6179 191.445 86.5446 191.445 86.453C191.445 86.4163 191.445 86.3797 191.445 86.3247C191.445 86.1964 191.445 86.0864 191.464 85.9581C191.647 83.9971 193.223 82.5492 193.461 82.3293C193.48 82.311 193.498 82.311 193.498 82.2927C193.571 82.2377 193.663 82.201 193.755 82.2194C193.846 82.2194 193.938 82.2743 193.993 82.3477C194.048 82.421 195.148 83.7772 195.313 85.5183C195.331 85.6649 195.331 85.7932 195.331 85.9398C195.331 86.0681 195.331 86.1964 195.313 86.3247C195.313 86.398 195.294 86.4896 195.276 86.5629C195.276 86.5813 195.276 86.6179 195.258 86.6362C195.258 86.6912 195.239 86.7462 195.221 86.7829C195.221 86.8195 195.203 86.8378 195.203 86.8745C195.184 86.9295 195.184 86.9661 195.166 87.0211C195.166 87.0578 195.148 87.0761 195.148 87.1127C195.129 87.1677 195.129 87.2044 195.111 87.2594C195.111 87.2777 195.093 87.3143 195.093 87.3327C195.074 87.3877 195.056 87.4243 195.038 87.4793C195.038 87.4976 195.019 87.5159 195.019 87.5343C195.001 87.6076 194.964 87.6626 194.928 87.7359C194.928 87.7542 194.909 87.7542 194.909 87.7725C194.891 87.8275 194.854 87.8825 194.836 87.9375C194.818 87.9558 194.818 87.9741 194.799 88.0108C194.781 88.0474 194.763 88.1024 194.726 88.1391C194.708 88.1574 194.708 88.1941 194.689 88.2124C194.671 88.249 194.653 88.2857 194.616 88.3223C194.598 88.3407 194.598 88.3773 194.579 88.3957C194.561 88.4323 194.524 88.469 194.506 88.5056C194.488 88.5239 194.488 88.5423 194.469 88.5606C194.451 88.5973 194.414 88.6522 194.396 88.6889C194.378 88.7072 194.378 88.7255 194.36 88.7255C194.323 88.7805 194.286 88.8355 194.25 88.8905C194.231 88.9088 194.231 88.9271 194.213 88.9455C194.195 88.9821 194.158 89.0188 194.14 89.0554C194.121 89.0738 194.103 89.0921 194.085 89.1104C194.066 89.1287 194.048 89.1471 194.048 89.1654C194.469 88.9455 194.909 88.7439 195.349 88.5239L195.404 88.4873C195.422 88.469 195.441 88.469 195.477 88.4506C195.587 88.3957 195.697 88.4323 195.734 88.5239C195.752 88.5789 195.734 88.6522 195.661 88.7072C195.624 88.7439 195.587 88.7622 195.551 88.7805C195.532 88.7805 195.514 88.7989 195.496 88.8172C195.129 89.0188 194.781 89.2204 194.451 89.422C194.561 89.4037 194.671 89.3853 194.781 89.3853C194.799 89.3853 194.799 89.3853 194.818 89.3853C194.964 89.367 195.093 89.367 195.239 89.3487C195.258 89.3487 195.294 89.3487 195.313 89.3487C195.422 89.3487 195.532 89.3487 195.642 89.3487C195.679 89.3487 195.716 89.3487 195.752 89.3487C195.844 89.3487 195.936 89.367 196.027 89.367C196.064 89.367 196.119 89.3853 196.156 89.3853C196.247 89.4037 196.32 89.4037 196.412 89.422C196.449 89.422 196.504 89.4403 196.54 89.4403C196.632 89.4586 196.705 89.477 196.797 89.4953C196.834 89.5136 196.87 89.5136 196.907 89.5319C197.017 89.5686 197.145 89.6053 197.255 89.6419C198.703 90.2101 199.601 91.5296 199.986 92.2077C200.059 92.336 200.114 92.4277 200.151 92.501C200.188 92.5743 200.206 92.6109 200.206 92.6293C200.242 92.7209 200.242 92.8125 200.206 92.9042C200.169 92.9958 200.096 93.0691 200.023 93.1058C199.986 93.1241 198.905 93.5639 197.603 93.5639C196.962 93.5639 196.375 93.454 195.844 93.2524C195.734 93.2157 195.642 93.1607 195.532 93.1058C195.532 93.1058 195.514 93.1058 195.514 93.0874C195.422 93.0325 195.331 92.9958 195.239 92.9408C195.221 92.9408 195.221 92.9225 195.203 92.9225C195.111 92.8675 195.038 92.8125 194.946 92.7575C194.928 92.7575 194.928 92.7392 194.909 92.7392C194.836 92.6842 194.744 92.6293 194.671 92.5559C194.653 92.5376 194.653 92.5376 194.634 92.5193C194.561 92.4643 194.488 92.391 194.414 92.336L194.396 92.3177C194.323 92.2444 194.25 92.1894 194.195 92.1161C194.195 92.1161 194.195 92.1161 194.176 92.0978C194.03 91.9511 193.901 91.8045 193.791 91.6579C193.791 91.6579 193.791 91.6396 193.773 91.6396C193.718 91.5663 193.663 91.5113 193.608 91.438L193.59 91.4197C193.535 91.3463 193.498 91.2914 193.461 91.2364L193.443 91.2181C193.406 91.1631 193.37 91.0898 193.333 91.0348L193.315 91.0165C193.278 90.9615 193.242 90.9065 193.205 90.8515C193.205 90.8515 193.205 90.8332 193.187 90.8332C193.15 90.7782 193.132 90.7232 193.095 90.6866C193.077 90.6316 193.04 90.5949 193.022 90.5583C193.003 90.5216 192.985 90.485 192.967 90.4483V90.43C192.948 90.4117 192.948 90.375 192.93 90.3567C190.822 91.5846 189.265 92.5193 188.312 93.1424C188.33 93.1424 188.33 93.1424 188.348 93.1424C188.367 93.1424 188.385 93.1424 188.403 93.1241C188.477 93.1058 188.531 93.0874 188.605 93.0874C188.623 93.0874 188.623 93.0874 188.641 93.0874C188.715 93.0691 188.806 93.0508 188.898 93.0508C188.916 93.0508 188.935 93.0508 188.953 93.0325C189.045 93.0141 189.118 93.0141 189.21 92.9958H189.228C189.32 92.9775 189.411 92.9775 189.521 92.9775C189.539 92.9775 189.576 92.9775 189.594 92.9775C189.704 92.9775 189.796 92.9775 189.906 92.9775C190.547 92.9775 191.152 93.0874 191.684 93.3074C191.922 93.399 192.16 93.5273 192.362 93.6556C193.736 94.517 194.469 95.9831 194.598 96.2581C194.616 96.2764 194.616 96.2947 194.616 96.2947C194.653 96.3863 194.653 96.478 194.616 96.5696C194.579 96.6613 194.506 96.7346 194.414 96.7712H194.396C194.231 96.8262 193.223 97.2111 192.014 97.2111C191.372 97.2111 190.767 97.1011 190.236 96.8812C190.181 96.8629 190.108 96.8262 190.053 96.8079C188.275 96.0015 187.395 94.1138 187.304 93.9122V93.8938C187.304 93.8938 187.304 93.8755 187.285 93.8755C184.353 95.9831 181.952 97.9808 180.156 99.7952C180.138 99.8136 180.138 99.8135 180.138 99.8319L180.119 99.8502C178.36 101.646 177.26 103.222 176.821 104.524V104.542C176.637 105.073 176.582 105.568 176.656 106.026V106.063C176.692 106.283 176.766 106.503 176.857 106.686C177.407 107.749 178.836 108.299 181.127 108.299C181.549 108.299 182.025 108.281 182.502 108.244H182.575L182.594 108.299C187.762 121.238 197.713 131.117 201.745 134.745C202.222 135.185 202.772 135.405 203.303 135.405C203.835 135.405 204.348 135.185 204.806 134.764C210.066 130.035 227.183 113.009 227.183 92.7026C227.183 90.7782 227.018 88.7805 226.688 86.7645V86.7095L226.725 86.6729C228.961 84.5653 230.39 82.7325 230.959 81.2297C231.032 81.0281 231.087 80.8448 231.142 80.6799C231.307 80.0018 231.289 79.397 231.05 78.9021C231.032 78.7555 231.014 78.7372 231.014 78.7188ZM205.722 88.7622C205.704 88.8538 205.649 88.9455 205.576 89.0005C205.576 89.0005 205.557 89.0005 205.539 89.0188C205.319 89.1654 203.908 90.0451 202.258 90.0451C202.002 90.0451 201.727 90.0268 201.489 89.9718C201.379 89.9535 201.287 89.9351 201.195 89.8985C201.177 89.8985 201.177 89.8985 201.159 89.8802C201.067 89.8618 200.976 89.8252 200.866 89.7885H200.847C199.546 89.3303 198.611 88.3407 198.227 87.8825L198.208 87.8642C198.19 87.8458 198.172 87.8092 198.153 87.7909C198.08 87.6992 198.043 87.6442 198.025 87.6259C197.988 87.5893 197.933 87.461 197.823 87.2044C197.823 87.2044 197.823 87.2044 197.823 87.1861C197.787 87.1127 197.182 85.7382 197.31 84.1987C197.347 83.8138 197.42 83.4106 197.567 83.0074C198.135 81.4679 199.528 80.5149 200.151 80.1484C200.169 80.13 200.206 80.1117 200.224 80.1117C200.261 80.0934 200.316 80.0567 200.334 80.0384C200.407 80.0018 200.444 79.9834 200.462 79.9834C200.499 79.9651 200.554 79.9468 200.591 79.9468C200.646 79.9468 200.682 79.9468 200.737 79.9651C200.829 80.0018 200.902 80.0567 200.939 80.1484C200.939 80.1484 200.939 80.1484 200.939 80.1667C201.012 80.3133 201.452 81.3946 201.47 82.6775C201.47 83.209 201.397 83.7772 201.195 84.327C200.884 85.1884 200.297 85.8665 199.748 86.343C200.279 86.1781 200.811 86.0864 201.305 86.0681C201.599 86.0681 201.892 86.0864 202.185 86.1414C202.57 86.2147 202.937 86.343 203.266 86.4896C203.376 86.5446 203.486 86.5996 203.596 86.6546C203.798 86.7645 204 86.8928 204.183 87.0211C205.081 87.6809 205.631 88.4323 205.667 88.469C205.704 88.5239 205.722 88.5973 205.741 88.6706C205.722 88.7255 205.722 88.7439 205.722 88.7622ZM209.388 81.8345C209.351 81.9261 208.6 84.1254 206.73 85.0784C206.07 85.4083 205.301 85.5733 204.439 85.5733C203.376 85.5733 202.57 85.3167 202.533 85.3167C202.442 85.28 202.368 85.225 202.332 85.1334C202.295 85.0418 202.277 84.9501 202.313 84.8585C202.313 84.8402 202.332 84.8035 202.368 84.7302C202.552 84.2354 203.34 82.4576 204.989 81.6146C205.649 81.2847 206.419 81.1197 207.28 81.1197C208.27 81.1197 209.039 81.3396 209.168 81.3763H209.186C209.278 81.413 209.351 81.4679 209.388 81.5596C209.424 81.6329 209.424 81.7428 209.388 81.8345Z" fill="white"/></g></g></svg>