<?xml version="1.0" standalone="no"?>
<!DOCTYPE svg PUBLIC "-//W3C//DTD SVG 20010904//EN"
 "http://www.w3.org/TR/2001/REC-SVG-20010904/DTD/svg10.dtd">
<svg version="1.0" xmlns="http://www.w3.org/2000/svg"
 width="48.000000pt" height="48.000000pt" viewBox="0 0 48.000000 48.000000"
 preserveAspectRatio="xMidYMid meet">

<g transform="translate(0.000000,48.000000) scale(0.100000,-0.100000)"
fill="#000000" stroke="none">
<path d="M152 468 c-6 -6 -8 -24 -5 -41 4 -21 3 -28 -5 -23 -7 4 -12 13 -12
20 0 24 -26 38 -39 22 -10 -12 -9 -20 4 -40 13 -20 14 -29 5 -47 -7 -12 -10
-38 -7 -59 5 -38 -13 -60 -48 -60 -17 0 -20 -26 -4 -35 7 -5 2 -16 -13 -32
-17 -18 -23 -36 -23 -70 0 -38 5 -49 33 -74 37 -33 94 -39 128 -14 14 11 49
14 139 15 80 0 125 4 133 12 7 7 12 44 12 95 0 67 3 83 15 83 8 0 15 9 15 20
0 14 -7 20 -22 20 -30 1 -74 66 -57 86 25 31 -11 41 -66 18 -19 -8 -20 -7 -2
19 9 15 13 27 8 27 -16 0 -33 -39 -26 -60 5 -16 2 -20 -19 -20 -14 0 -28 -4
-31 -10 -11 -18 -20 -11 -32 28 -10 31 -9 41 4 61 13 21 13 25 0 39 -14 13
-18 11 -37 -19 l-22 -34 4 33 c5 36 -12 58 -30 40z m17 -35 c-1 -38 -1 -38 -9
-9 -8 27 -6 46 6 46 2 0 4 -17 3 -37z m-46 -15 c8 -30 0 -36 -18 -12 -18 24
-19 34 -1 34 7 0 16 -10 19 -22z m107 3 c-14 -27 -36 -40 -27 -17 4 10 7 22 7
27 0 5 7 9 15 9 12 0 14 -4 5 -19z m-23 -53 c23 -22 28 -44 17 -85 -5 -20 -13
-23 -53 -23 -35 0 -43 3 -31 11 12 9 12 10 -4 5 -38 -13 -50 60 -16 94 26 26
58 25 87 -2z m183 -23 c-7 -8 -24 -15 -37 -15 -22 0 -24 2 -13 15 7 8 24 15
37 15 22 0 24 -2 13 -15z m-80 -41 c0 -9 -5 -12 -12 -8 -7 4 -8 3 -4 -4 9 -15
43 -16 51 -2 4 6 2 9 -3 8 -6 -2 -11 2 -11 7 -3 21 47 16 68 -6 12 -13 21 -26
21 -31 0 -4 -43 -8 -95 -8 -92 0 -95 1 -85 20 19 36 70 54 70 24z m-212 -80
c0 -21 -5 -25 -26 -22 -35 4 -41 28 -7 28 15 0 24 4 20 10 -3 6 -2 10 3 10 5
0 10 -11 10 -26z m372 16 c0 -5 -7 -10 -15 -10 -10 0 -15 -10 -15 -29 l0 -30
-120 -3 c-94 -2 -124 0 -135 11 -7 8 -28 14 -45 13 -20 0 -30 4 -27 11 2 8 52
14 158 17 l154 6 -158 2 c-102 1 -156 6 -152 12 8 14 355 14 355 0z m-372 -69
c3 -9 0 -11 -8 -6 -9 5 -11 4 -6 -3 9 -15 43 -16 51 -2 4 6 -1 7 -11 3 -12 -4
-15 -3 -10 5 11 18 51 14 68 -5 53 -61 6 -153 -78 -153 -60 0 -105 68 -84 126
18 49 66 70 78 35z m342 -46 l0 -25 -110 0 c-60 0 -110 4 -110 9 0 5 -3 16 -6
25 -5 14 8 16 110 16 l116 0 0 -25z m-2 -57 c-3 -22 -7 -23 -120 -26 -65 -1
-118 0 -118 3 0 4 5 15 10 26 10 17 22 19 121 19 109 0 110 0 107 -22z"/>
<path d="M44 71 c15 -27 34 -41 59 -41 7 0 -3 9 -20 20 -18 11 -33 27 -33 35
0 8 -5 15 -10 15 -6 0 -4 -12 4 -29z"/>
</g>
</svg>
