<?xml version="1.0" standalone="no"?>
<!DOCTYPE svg PUBLIC "-//W3C//DTD SVG 20010904//EN"
 "http://www.w3.org/TR/2001/REC-SVG-20010904/DTD/svg10.dtd">
<svg version="1.0" xmlns="http://www.w3.org/2000/svg"
 width="48.000000pt" height="48.000000pt" viewBox="0 0 48.000000 48.000000"
 preserveAspectRatio="xMidYMid meet">

<g transform="translate(0.000000,48.000000) scale(0.100000,-0.100000)"
fill="#000000" stroke="none">
<path d="M280 461 c-15 -29 -13 -54 11 -116 12 -31 19 -58 17 -60 -2 -2 -35 5
-73 16 -38 10 -74 19 -80 19 -19 -1 20 -18 58 -24 42 -8 46 -18 15 -40 -30
-21 -66 -20 -111 3 -20 10 -37 15 -37 11 0 -12 77 -40 113 -41 31 0 31 -1 7
-10 -23 -9 -43 -8 -94 8 -11 3 -16 1 -12 -5 10 -16 79 -24 109 -13 15 6 36 24
45 41 19 33 38 34 35 1 -4 -30 4 -26 22 13 15 31 15 37 -5 87 -26 69 -25 94 2
113 18 13 19 16 6 16 -10 0 -22 -9 -28 -19z"/>
<path d="M340 476 c0 -2 7 -6 15 -10 8 -3 15 -1 15 4 0 6 -7 10 -15 10 -8 0
-15 -2 -15 -4z"/>
<path d="M368 434 c-5 -4 -8 -16 -8 -26 0 -15 8 -18 55 -18 41 0 57 4 62 15 3
9 4 18 2 20 -9 8 -104 16 -111 9z m71 -10 c48 -10 37 -24 -19 -24 -38 0 -50 4
-50 15 0 16 19 19 69 9z"/>
<path d="M360 343 c4 -16 16 -48 25 -73 30 -84 -1 -140 -91 -165 -27 -7 -43
-14 -36 -14 6 -1 12 -8 12 -16 0 -8 5 -15 10 -15 6 0 10 6 10 14 0 8 19 24 43
35 45 22 77 64 77 101 0 28 -43 159 -52 160 -4 0 -3 -12 2 -27z"/>
<path d="M20 311 c0 -10 7 -24 15 -31 8 -7 15 -20 15 -30 0 -23 21 -82 27 -76
6 6 -14 71 -33 108 -20 37 -18 40 24 33 27 -4 32 -3 17 4 -35 17 -65 13 -65
-8z"/>
<path d="M116 177 c21 -12 96 -12 116 -1 11 6 -8 9 -57 9 -45 0 -68 -3 -59 -8z"/>
<path d="M50 135 c-6 -8 -9 -23 -5 -35 5 -17 2 -20 -19 -20 -32 0 -36 -32 -6
-53 11 -8 17 -17 12 -21 -4 -5 2 -6 13 -4 21 3 55 39 55 57 0 6 10 11 23 12
20 0 20 1 3 8 -17 6 -17 9 -4 21 13 13 12 17 -8 32 -27 22 -48 23 -64 3z m56
-10 c9 -22 -27 -95 -47 -95 -28 0 -49 11 -49 26 0 9 11 14 30 14 28 0 30 2 20
21 -7 11 -9 27 -6 35 7 18 45 18 52 -1z"/>
<path d="M157 143 c28 -5 37 -31 19 -52 -8 -9 -16 -25 -18 -36 -2 -12 -13 -21
-26 -23 -27 -4 -30 -28 -2 -28 13 0 28 17 49 57 28 54 29 58 12 73 -10 9 -26
15 -37 15 -16 -2 -16 -2 3 -6z"/>
<path d="M224 51 c1 -30 6 -46 16 -48 13 -4 13 -3 0 6 -12 8 -8 11 18 11 17 0
32 -4 32 -10 0 -5 5 -10 11 -10 8 0 8 5 -1 15 -7 8 -25 15 -41 15 -24 0 -28 5
-32 33 -3 22 -4 18 -3 -12z"/>
<path d="M330 23 c8 -3 19 -11 23 -17 6 -7 7 -6 4 4 -2 8 -12 16 -23 17 -13 2
-15 1 -4 -4z"/>
</g>
</svg>
