<?xml version="1.0" standalone="no"?>
<!DOCTYPE svg PUBLIC "-//W3C//DTD SVG 20010904//EN"
 "http://www.w3.org/TR/2001/REC-SVG-20010904/DTD/svg10.dtd">
<svg version="1.0" xmlns="http://www.w3.org/2000/svg"
 width="48.000000pt" height="48.000000pt" viewBox="0 0 48.000000 48.000000"
 preserveAspectRatio="xMidYMid meet">

<g transform="translate(0.000000,48.000000) scale(0.100000,-0.100000)"
fill="#000000" stroke="none">
<path d="M150 463 c-38 -25 -80 -66 -80 -77 0 -5 17 6 38 26 20 20 51 44 67
52 17 9 23 16 15 16 -9 0 -27 -7 -40 -17z"/>
<path d="M245 464 c17 -8 47 -32 68 -52 20 -20 37 -31 37 -24 0 16 -98 92
-118 92 -10 0 -5 -7 13 -16z"/>
<path d="M406 340 c-7 -44 -22 -53 -29 -17 -3 14 -5 9 -6 -14 -1 -49 -26 -58
-46 -19 -18 35 -25 39 -18 10 8 -30 -12 -24 -42 13 -17 20 -24 24 -20 12 21
-57 10 -100 -14 -57 -16 27 -13 5 4 -27 8 -16 12 -31 10 -33 -5 -5 47 -112 66
-134 6 -8 24 -14 40 -14 20 0 33 -8 46 -30 9 -16 21 -30 26 -30 4 0 6 4 3 9
-12 19 7 69 30 80 13 6 24 18 24 28 0 15 -3 14 -16 -5 -22 -32 -32 -27 -32 14
0 28 5 38 24 46 13 6 24 17 24 25 0 8 -8 5 -22 -9 -16 -16 -23 -18 -26 -8 -4
12 17 35 40 42 6 2 6 26 0 63 -5 33 -10 50 -11 38 -2 -38 -20 -26 -27 17 -4
22 -10 40 -14 40 -4 0 -10 -18 -14 -40z m24 -35 c0 -14 -4 -25 -10 -25 -11 0
-14 33 -3 43 11 11 13 8 13 -18z m-140 -41 c0 -8 -5 -14 -11 -14 -5 0 -7 -4
-4 -10 10 -16 22 -12 28 10 6 23 27 27 27 6 0 -25 -30 -47 -54 -40 -29 9 -31
13 -18 26 7 7 12 20 12 31 0 10 5 15 10 12 6 -3 10 -13 10 -21z m119 9 c9 -17
11 -17 25 2 8 11 18 17 22 13 4 -4 1 -15 -7 -25 -12 -15 -12 -16 4 -10 25 9
22 -20 -4 -34 -19 -10 -20 -8 -14 10 5 16 2 21 -12 21 -19 0 -43 18 -43 32 0
15 19 8 29 -9z m-18 -23 c10 -6 19 -18 19 -27 0 -14 -2 -14 -24 1 -14 9 -27
12 -30 8 -2 -4 -3 -34 -2 -68 l3 -60 -29 4 c-34 5 -48 22 -18 22 12 0 18 5 15
10 -4 6 -10 8 -15 5 -10 -6 -40 4 -40 15 0 13 48 18 61 6 9 -8 9 -6 0 11 -15
30 -14 40 9 63 23 23 25 23 51 10z m0 -40 c10 -6 19 -17 19 -26 0 -11 -4 -12
-19 -5 -10 6 -21 17 -25 26 -6 18 -2 19 25 5z m-81 -20 c0 -5 -11 -10 -24 -10
-14 0 -28 5 -31 10 -4 6 7 10 24 10 17 0 31 -4 31 -10z m80 -20 c12 -7 18 -21
18 -45 0 -40 -13 -42 -37 -6 -15 23 -14 23 9 16 l25 -7 -22 21 c-33 31 -30 41
7 21z m-36 -76 c9 -3 16 -10 16 -16 0 -14 -53 -5 -58 10 -4 13 16 16 42 6z
m60 -31 c10 -24 -2 -29 -19 -7 -8 10 -15 22 -15 26 0 13 28 -3 34 -19z"/>
<path d="M82 353 c48 -2 129 -2 180 0 51 1 12 3 -87 3 -99 0 -141 -2 -93 -3z"/>
<path d="M0 328 c0 -5 18 -8 40 -8 22 0 40 2 40 4 0 2 -18 6 -40 8 -22 2 -40
0 -40 -4z"/>
<path d="M148 323 c12 -2 32 -2 45 0 12 2 2 4 -23 4 -25 0 -35 -2 -22 -4z"/>
<path d="M0 298 c0 -5 46 -7 103 -6 106 1 94 6 -31 10 -39 2 -72 0 -72 -4z"/>
<path d="M5 228 c-3 -24 -5 -81 -3 -128 l3 -85 45 -7 c25 -3 63 -6 85 -6 36 0
34 1 -15 9 -30 4 -67 9 -82 11 l-26 2 2 123 c1 68 1 123 0 123 -2 0 -6 -19 -9
-42z"/>
<path d="M456 149 c-11 -11 -15 -19 -10 -19 16 0 37 17 33 27 -2 6 -13 2 -23
-8z"/>
<path d="M290 10 l-45 -7 45 -1 c25 0 56 4 70 8 l25 8 -25 0 c-14 -1 -45 -4
-70 -8z"/>
</g>
</svg>
