<?xml version="1.0" standalone="no"?>
<!DOCTYPE svg PUBLIC "-//W3C//DTD SVG 20010904//EN"
 "http://www.w3.org/TR/2001/REC-SVG-20010904/DTD/svg10.dtd">
<svg version="1.0" xmlns="http://www.w3.org/2000/svg"
 width="48.000000pt" height="48.000000pt" viewBox="0 0 48.000000 48.000000"
 preserveAspectRatio="xMidYMid meet">

<g transform="translate(0.000000,48.000000) scale(0.100000,-0.100000)"
fill="#000000" stroke="none">
<path d="M75 469 c-12 -6 -27 -19 -34 -31 -17 -27 1 -70 38 -94 23 -16 24 -16
12 -1 -12 15 -9 16 35 13 31 -3 52 -10 61 -22 7 -10 13 -14 13 -9 0 4 -11 23
-25 41 -14 18 -25 41 -25 51 0 11 -5 24 -12 31 -9 9 -8 12 4 12 21 0 37 -20
44 -58 4 -18 10 -32 15 -32 5 0 4 12 -2 26 -12 34 -4 43 17 18 14 -18 15 -18
4 4 -21 43 -102 72 -145 51z m49 -21 c27 -39 19 -51 -16 -26 -18 13 -35 24
-38 26 -5 3 21 22 32 22 4 0 14 -10 22 -22z m19 -61 c27 -22 20 -28 -20 -22
-74 13 -90 25 -77 60 5 12 11 12 42 -5 21 -11 45 -26 55 -33z"/>
<path d="M345 470 c-11 -5 -14 -9 -7 -9 9 -1 10 -6 2 -20 -5 -11 -10 -28 -10
-39 0 -17 -38 -62 -53 -62 -12 0 -8 75 5 88 9 9 9 12 0 12 -6 0 -18 -13 -27
-30 -17 -33 -19 -44 -6 -36 13 8 21 -62 11 -90 -15 -38 -2 -28 14 11 16 38 32
48 68 43 21 -3 20 -5 -14 -25 -22 -13 -38 -30 -37 -40 0 -15 2 -14 9 3 5 12
22 26 40 32 106 37 141 126 63 161 -28 13 -31 13 -58 1z m69 -21 c20 -16 25
-26 20 -43 -12 -41 -35 -56 -82 -56 l-45 0 23 25 c18 19 32 24 54 22 17 -3 23
-2 14 0 -24 6 -23 20 3 28 11 4 18 9 15 12 -3 3 -21 -5 -40 -17 -40 -24 -48
-12 -20 28 19 27 25 27 58 1z"/>
<path d="M225 315 c-3 -26 -4 -49 -2 -51 3 -3 8 16 12 41 3 26 4 49 2 51 -3 3
-8 -16 -12 -41z"/>
<path d="M163 300 c9 -6 17 -18 17 -25 0 -8 5 -15 11 -15 16 0 -13 43 -32 48
-8 2 -6 -2 4 -8z"/>
<path d="M136 233 c17 -3 23 -14 27 -46 3 -23 13 -47 22 -53 14 -11 13 -15
-14 -43 -17 -18 -31 -39 -30 -49 0 -12 4 -9 11 8 l11 25 7 -30 c4 -17 8 -24 9
-17 0 8 6 10 14 6 10 -6 10 -4 0 7 -7 7 -13 20 -13 28 1 20 34 61 49 61 15 0
14 -13 -1 -29 -10 -11 -10 -13 0 -7 17 10 15 -9 -3 -24 -8 -7 -14 -26 -14 -44
2 -30 2 -30 6 -3 5 30 20 36 25 10 2 -10 5 6 5 36 1 29 4 56 7 59 11 10 19 -8
20 -46 0 -34 2 -37 13 -23 11 14 12 13 13 -9 0 -19 5 -26 20 -26 16 0 17 3 7
16 -27 35 -38 60 -25 60 8 0 6 5 -4 11 -16 9 -16 11 2 29 12 12 20 34 20 54 0
28 4 35 23 39 12 2 -34 4 -103 4 -69 0 -115 -2 -104 -4z m174 -36 c0 -45 -15
-57 -72 -57 -52 0 -68 15 -68 64 0 25 2 26 70 26 l70 0 0 -33z"/>
<path d="M192 190 c0 -14 2 -19 5 -12 2 6 2 18 0 25 -3 6 -5 1 -5 -13z"/>
<path d="M222 185 c0 -16 2 -22 5 -12 2 9 2 23 0 30 -3 6 -5 -1 -5 -18z"/>
<path d="M252 185 c0 -16 2 -22 5 -12 2 9 2 23 0 30 -3 6 -5 -1 -5 -18z"/>
<path d="M282 190 c0 -14 2 -19 5 -12 2 6 2 18 0 25 -3 6 -5 1 -5 -13z"/>
</g>
</svg>
