<svg width="60" height="60" fill="none" xmlns="http://www.w3.org/2000/svg"><g clip-path="url(#clip0_2_10)"><path d="M55.49 36.53L44.49 31.62C43.6841 31.2609 42.8079 31.0872 41.926 31.1115C41.0441 31.1359 40.1789 31.3577 39.394 31.7607C38.6092 32.1637 37.9247 32.7376 37.3909 33.4401C36.8572 34.1426 36.4878 34.9558 36.31 35.82C36.1939 36.3749 35.9436 36.8929 35.581 37.3288C35.2184 37.7646 34.7545 38.1049 34.23 38.32C33.7293 38.5326 33.1833 38.6165 32.6418 38.5641C32.1004 38.5117 31.5807 38.3247 31.13 38.02C27.8082 35.2721 24.7515 32.2188 22 28.9C21.6953 28.4493 21.5083 27.9296 21.4559 27.3881C21.4035 26.8467 21.4874 26.3007 21.7 25.8C21.9151 25.2754 22.2554 24.8116 22.6912 24.449C23.127 24.0864 23.6451 23.8361 24.2 23.72C25.0641 23.5421 25.8774 23.1728 26.5799 22.639C27.2824 22.1053 27.8563 21.4208 28.2593 20.636C28.6622 19.8511 28.8841 18.9859 28.9084 18.104C28.9328 17.222 28.759 16.3459 28.4 15.54L23.49 4.53999C22.8972 3.18301 21.8134 2.10021 20.4559 1.50863C19.0984 0.917037 17.5675 0.860371 16.17 1.34999L4.99999 5.17999C3.76077 5.59255 2.69454 6.40662 1.97005 7.49336C1.24556 8.58009 0.904196 9.87741 0.999993 11.18C1.919 23.5664 7.2589 35.2101 16.0461 43.9882C24.8333 52.7662 36.4826 58.0939 48.87 59C49.0065 59.0097 49.1435 59.0097 49.28 59C50.5047 58.992 51.6964 58.6024 52.6893 57.8855C53.6823 57.1685 54.427 56.1599 54.82 55L58.68 43.84C59.1667 42.4437 59.1086 40.9152 58.5171 39.56C57.9257 38.2048 56.8447 37.1227 55.49 36.53ZM56.79 43.2L52.93 54.36C52.6611 55.174 52.1289 55.8752 51.4173 56.3533C50.7057 56.8313 49.8552 57.0588 49 57C37.0912 56.1212 25.8947 50.9926 17.451 42.5489C9.00737 34.1053 3.87878 22.9087 2.99999 11C2.94465 10.1454 3.17358 9.29653 3.65111 8.58566C4.12864 7.8748 4.82793 7.34188 5.63999 7.06999L16.8 3.21999C17.2147 3.07507 17.6507 3.00071 18.09 2.99999C18.8444 2.99981 19.5827 3.21903 20.2148 3.63095C20.8468 4.04287 21.3455 4.62971 21.65 5.31999L26.55 16.32C26.7879 16.8531 26.903 17.4328 26.887 18.0163C26.8709 18.5999 26.7241 19.1724 26.4573 19.6916C26.1904 20.2108 25.8105 20.6635 25.3454 21.0163C24.8803 21.3691 24.3419 21.613 23.77 21.73C22.8936 21.9126 22.0756 22.3083 21.3884 22.8821C20.7012 23.4559 20.166 24.1902 19.83 25.02C19.489 25.8283 19.3553 26.709 19.4408 27.5821C19.5264 28.4553 19.8286 29.2932 20.32 30.02C23.2139 33.5571 26.4569 36.7935 30 39.68C30.7275 40.1697 31.5653 40.4709 32.4381 40.5564C33.3109 40.642 34.1913 40.5092 35 40.17C35.8275 39.8319 36.5593 39.2959 37.1312 38.6089C37.7031 37.9219 38.0975 37.105 38.28 36.23C38.397 35.6581 38.6409 35.1197 38.9937 34.6546C39.3465 34.1895 39.7992 33.8095 40.3184 33.5427C40.8376 33.2759 41.4101 33.1291 41.9936 33.113C42.5772 33.097 43.1569 33.2121 43.69 33.45L54.69 38.35C55.5849 38.7472 56.2977 39.4665 56.6868 40.365C57.0759 41.2636 57.1127 42.2756 56.79 43.2Z" fill="#e6d54f"/><path d="M33.9 3C40.0249 3.0053 45.8974 5.44074 50.2283 9.77168C54.5593 14.1026 56.9947 19.9751 57 26.1C57 26.3652 57.1053 26.6196 57.2929 26.8071C57.4804 26.9946 57.7348 27.1 58 27.1C58.2652 27.1 58.5196 26.9946 58.7071 26.8071C58.8946 26.6196 59 26.3652 59 26.1C58.9921 19.4455 56.345 13.0658 51.6396 8.36039C46.9342 3.65495 40.5545 1.00794 33.9 1C33.6348 1 33.3804 1.10536 33.1929 1.29289C33.0053 1.48043 32.9 1.73478 32.9 2C32.9 2.26522 33.0053 2.51957 33.1929 2.70711C33.3804 2.89464 33.6348 3 33.9 3Z" fill="#e6d54f"/><path d="M33.9 10.84C37.9464 10.8426 41.8263 12.4512 44.6875 15.3125C47.5487 18.1737 49.1573 22.0536 49.16 26.1C49.16 26.3652 49.2653 26.6196 49.4529 26.8071C49.6404 26.9946 49.8948 27.1 50.16 27.1C50.4252 27.1 50.6796 26.9946 50.8671 26.8071C51.0546 26.6196 51.16 26.3652 51.16 26.1C51.1547 21.524 49.3345 17.1369 46.0988 13.9012C42.8631 10.6654 38.476 8.84529 33.9 8.84C33.6348 8.84 33.3804 8.94535 33.1929 9.13289C33.0053 9.32043 32.9 9.57478 32.9 9.84C32.9 10.1052 33.0053 10.3596 33.1929 10.5471C33.3804 10.7346 33.6348 10.84 33.9 10.84Z" fill="#e6d54f"/><path d="M33.9 18.67C35.8706 18.67 37.7604 19.4528 39.1538 20.8462C40.5472 22.2396 41.33 24.1295 41.33 26.1C41.33 26.3652 41.4354 26.6196 41.6229 26.8071C41.8104 26.9947 42.0648 27.1 42.33 27.1C42.5952 27.1 42.8496 26.9947 43.0371 26.8071C43.2246 26.6196 43.33 26.3652 43.33 26.1C43.3273 23.5998 42.333 21.2028 40.5651 19.4349C38.7972 17.667 36.4002 16.6727 33.9 16.67C33.6348 16.67 33.3804 16.7754 33.1929 16.9629C33.0053 17.1504 32.9 17.4048 32.9 17.67C32.9 17.9352 33.0053 18.1896 33.1929 18.3771C33.3804 18.5647 33.6348 18.67 33.9 18.67Z" fill="#e6d54f"/></g><defs><clipPath id="clip0_2_10"><rect width="60" height="60" fill="white"/></clipPath></defs></svg>