<?xml version="1.0" encoding="iso-8859-1"?><!--Uploaded to: SVG Repo, www.svgrepo.com, Generator: SVG Repo Mixer Tools--><svg height="800px" width="800px" version="1.1" id="Layer_1" xmlns="http://www.w3.org/2000/svg" xmlns:xlink="http://www.w3.org/1999/xlink" viewBox="0 0 503.467 503.467" xml:space="preserve"><path style="fill:#FFD0A1" d="M499.886,394.24l-177.493,102.4c-32.427-37.547-84.48-72.533-133.12-99.84
	c-5.973-3.413-11.947-6.827-18.773-10.24c-31.573-17.067-45.227-61.44-13.653-80.213c0,0,22.187-7.68,40.107,6.827l-117.76-192
	c-9.387-16.213-6.827-34.987,9.387-45.227c16.213-9.387,30.72-0.853,42.667,15.36l91.307,128.853
	c-9.387-16.213-4.267-37.547,12.8-46.933c16.213-9.387,37.547-4.267,46.933,12.8l8.533,14.507
	c-9.387-16.213-3.413-37.547,12.8-46.933c16.213-9.387,37.547-4.267,46.933,12.8l12.8,22.187c-6.827-11.947-2.56-28.16,9.387-34.987
	c11.947-6.827,28.16-1.707,34.987,9.387l55.467,96.427C495.619,318.293,477.699,337.92,499.886,394.24"/><path style="fill:#51565F" d="M322.392,503.467c-0.853,0-2.56-0.853-3.413-1.707c-27.307-31.573-71.68-64.853-132.267-98.987
	c-5.973-3.413-11.947-6.827-18.773-10.24c-19.627-11.093-33.28-31.573-33.28-52.053c0-15.36,6.827-27.307,19.627-34.987
	c1.707-0.853,4.267-0.853,5.973,1.707c0.853,1.707,0.853,4.267-1.707,5.973c-12.8,7.68-15.36,18.773-15.36,27.307
	c0,17.067,11.947,35.84,29.013,45.227c5.973,3.413,11.947,6.827,18.773,10.24c58.88,34.133,104.107,66.56,132.267,98.133
	l171.52-98.987c-8.533-23.04-11.093-40.107-12.8-56.32c-2.56-21.333-5.12-42.667-23.893-75.093l-55.467-96.427
	c-5.12-9.387-19.627-13.653-29.013-7.68c-4.267,2.56-8.533,7.68-9.387,12.8c-1.707,5.973-0.853,11.093,1.707,16.213l0,0
	c0.853,1.707,0.853,4.267-1.707,5.973c-1.707,0.853-4.267,0.853-5.973-1.707l0,0l-12.8-22.187
	c-8.533-14.507-26.453-18.773-40.96-11.093c-14.507,8.533-18.773,26.453-11.093,40.96c0.853,1.707,0.853,4.267-1.707,5.973
	c-1.707,0.853-4.267,0.853-5.973-1.707l-8.533-14.507c-4.267-6.827-10.24-11.947-17.92-13.653c-7.68-1.707-15.36-0.853-23.04,2.56
	c-6.827,4.267-11.947,10.24-13.653,17.92s-0.853,15.36,3.413,23.04c0.853,1.707,0.853,4.267-1.707,5.973
	c-1.707,0.853-4.267,0.853-5.973-0.853L126.979,96.427c-11.947-16.213-24.747-20.48-36.693-13.653
	C83.459,87.04,79.193,92.16,78.339,99.84c-0.853,6.827,0,14.507,4.267,22.187l117.76,192c0.853,1.707,0.853,4.267-1.707,5.973
	c-1.707,0.853-4.267,0.853-5.973-1.707l-117.76-192c-5.12-9.387-6.827-18.773-5.973-28.16c1.707-9.387,7.68-17.92,16.213-23.04
	c16.213-9.387,33.28-3.413,47.787,16.213l79.36,110.933c0-2.56,0.853-5.12,0.853-7.68c2.56-10.24,9.387-17.92,17.92-23.04
	c8.533-5.12,19.627-6.827,29.013-3.413c7.68,1.707,14.507,6.827,19.627,12.8c1.707-11.093,8.533-22.187,18.773-28.16
	c18.773-10.24,41.813-4.267,52.053,13.653l2.56,4.267c0,0,0,0,0-0.853c1.707-7.68,6.827-14.507,13.653-17.92
	c13.653-7.68,33.28-2.56,40.96,11.093l55.467,96.427c19.627,34.133,22.187,55.467,25.6,78.507
	c1.707,16.213,4.267,34.133,13.653,57.173c0.853,1.707,0,4.267-1.707,5.12l-177.493,102.4
	C324.099,503.467,323.246,503.467,322.392,503.467z M32.259,168.96c-0.853,0-2.56,0-3.413-0.853c-1.707-1.707-1.707-4.267,0-5.973
	l23.893-23.893c1.707-1.707,4.267-1.707,5.973,0c1.707,1.707,1.707,4.267,0,5.973l-23.893,23.893
	C34.819,168.107,33.966,168.96,32.259,168.96z M39.086,102.4H4.952c-2.56,0-4.267-1.707-4.267-4.267s1.707-4.267,4.267-4.267h34.133
	c2.56,0,4.267,1.707,4.267,4.267S41.646,102.4,39.086,102.4z M141.486,59.733c-0.853,0-2.56,0-3.413-0.853
	c-1.707-1.707-1.707-4.267,0-5.973l23.893-23.893c1.707-1.707,4.267-1.707,5.973,0c1.707,1.707,1.707,4.267,0,5.973L144.046,58.88
	C143.193,59.733,142.339,59.733,141.486,59.733z M57.006,59.733c-0.853,0-2.56,0-3.413-0.853L29.699,34.987
	c-1.707-1.707-1.707-4.267,0-5.973c1.707-1.707,4.267-1.707,5.973,0l23.893,23.893c1.707,1.707,1.707,4.267,0,5.973
	C58.712,59.733,57.859,59.733,57.006,59.733z M98.819,42.667c-2.56,0-4.267-1.707-4.267-4.267V4.267c0-2.56,1.707-4.267,4.267-4.267
	c2.56,0,4.267,1.707,4.267,4.267V38.4C103.086,40.96,101.379,42.667,98.819,42.667z"/></svg>